PathFileType	4	(X/Y/Z)	C:\Users\WrightLab\Desktop\Jo\P1_boxCal34.trc
DataRate	CameraRate	NumFrames	NumMarkers	Units	OrigDataRate	OrigDataStartFrame	OrigNumFrames
100.00	100.00	       19	19	mm	100.00	409	       544
Frame#	Time	Headset_Front			Headset_Back			Headset_Left			Headset_Right			Left_Shoulder			Right_Shoulder			Sternum			C7			Left Elbow			Right Elbow			Left Wrist			Right Wrist			Left ASIS			Right ASIS			S2			Left Knee			Right Knee			Left Ankle			Right Ankle			
		X1	Y1	Z1	X2	Y2	Z2	X3	Y3	Z3	X4	Y4	Z4	X5	Y5	Z5	X6	Y6	Z6	X7	Y7	Z7	X8	Y8	Z8	X9	Y9	Z9	X10	Y10	Z10	X11	Y11	Z11	X12	Y12	Z12	X13	Y13	Z13	X14	Y14	Z14	X15	Y15	Z15	X16	Y16	Z16	X17	Y17	Z17	X18	Y18	Z18	X19	Y19	Z19	

409	4.080	-153.01595	1439.15918	1991.28845				35.87271	1496.44702	1922.21155				181.92117	1317.98999	1881.76416	-185.40164	1299.06641	1768.90552	-57.34512	1221.13416	1955.34888				263.24576	996.41187	1895.77844	-225.69545	1033.39746	1670.41687	290.63287	828.31335	2025.27917	-301.06091	796.79498	1724.68860	45.37957	944.62964	2026.51038	-144.74460	931.08862	1958.97009	59.26891	919.73450	1691.55688	227.65057	509.94800	2009.18237	-128.08192	485.52783	1897.59204	296.03915	286.38770	1743.19275				
410	4.090	-157.21713	1440.35315	1997.40308				31.91609	1497.94458	1930.53015				178.58566	1318.37122	1891.89258	-187.38081	1300.56018	1774.98779	-62.42732	1222.23547	1963.59656				257.04617	995.81500	1903.45813				283.22900	828.69958	2037.33923	-304.29337	798.20038	1735.35339	38.57251	945.12738	2035.23303	-149.86630	933.05188	1963.98035				217.78633	515.92798	2034.14819	-130.32437	484.98215	1900.35120	290.71732	283.31061	1770.54602	50.35097	123.52563	1981.49585	
411	4.100	-161.35170	1441.63696	2002.85046				28.61509	1498.66382	1939.32581				175.21715	1319.20886	1901.76416	-189.45552	1302.10803	1781.97314	-66.59810	1223.79688	1969.01904				252.84828	995.07013	1912.60193	-230.51065	1035.38586	1684.17249	276.84854	829.48926	2048.30273	-308.04456	800.71991	1743.52966	31.95635	946.15051	2043.56689	-154.59668	934.17975	1969.86401	56.68060	921.62744	1709.12036	206.17860	519.21478	2052.63574	-130.42499	485.48257	1895.67407	286.02524	280.15430	1798.07080	49.88968	123.65969	1982.05420	
412	4.110	-165.80397	1442.10510	2009.64758				25.25805	1499.95581	1947.66345				171.67114	1319.78955	1911.67773	-191.41733	1303.53491	1788.24097	-71.43864	1225.39294	1976.27271				248.58380	996.42462	1924.06946	-232.40691	1036.58081	1689.56104	269.25723	829.22827	2057.98657	-310.55875	802.36047	1754.54749	25.09764	947.71436	2052.56396	-159.02910	935.35358	1973.89709	56.00001	922.51202	1717.98022	194.84300	524.92786	2074.07739	-131.57655	484.58258	1896.94629	280.87424	275.52435	1826.14417	50.53767	125.98239	1985.39978	
413	4.120	-169.78258	1443.29211	2015.55920				21.37242	1501.08459	1955.85559				168.16591	1320.22644	1922.22693	-193.64215	1304.84277	1794.29761	-76.60655	1226.07507	1982.61780				244.13162	997.38287	1936.21240	-234.52116	1037.17517	1697.09229	262.12979	828.44562	2069.53125	-313.61993	803.58130	1761.90881	17.96677	949.41827	2061.76001	-164.36375	936.68359	1978.39612	55.33680	923.94879	1727.90320	184.14835	528.22504	2091.50366	-133.22450	484.37241	1897.87830	274.63373	270.25684	1856.28735	57.63657	138.82939	2004.46521	
414	4.130	-174.30919	1444.59619	2022.16040				18.12115	1500.74219	1963.17090				164.16118	1321.22241	1931.55640	-195.57329	1305.87988	1800.05920	-81.44238	1226.82825	1988.62439				239.66864	996.96924	1945.25488	-236.39622	1037.88782	1702.65527	256.23398	830.17743	2080.57007	-315.64020	804.90588	1770.17969	10.37168	950.62024	2069.28540	-169.90555	938.13843	1983.45776	54.70242	924.46814	1735.34875	173.48172	531.87482	2108.38452	-134.71875	484.22601	1899.47852	267.08997	265.34708	1883.98218	49.30055	123.58427	1982.54224	
415	4.140	-178.48514	1444.58215	2027.65967				14.17833	1501.75720	1972.14722				160.62225	1321.26697	1942.09631	-197.66534	1306.46570	1806.61780	-86.55769	1228.18567	1995.95081				235.22479	997.69189	1957.74756	-238.56361	1038.57825	1708.88684	248.57820	829.68842	2092.58545	-318.02814	806.05017	1778.14795	2.74188	952.28412	2078.19897	-175.96715	939.15741	1988.12622	54.57973	924.33167	1746.28784	162.43855	536.30353	2124.87109	-136.25359	483.81998	1902.25183	260.91425	258.16861	1915.42139	49.28703	123.41502	1982.55652	
416	4.150	-183.29372	1445.63794	2033.64502				10.67738	1501.73425	1980.10059				156.39330	1321.87378	1952.01758				-92.16135	1228.60510	2002.62976				230.61313	997.01257	1967.28381	-240.44473	1039.46313	1713.92651	242.30727	829.30615	2103.96899	-319.74939	807.19379	1785.15588	-4.67652	952.73224	2085.92871	-181.58522	940.33459	1992.54822				150.51874	539.70349	2139.67041	-137.97754	483.51047	1904.92603	252.63341	251.48006	1944.77917	49.25139	123.02972	1982.83203	
417	4.160	-187.60632	1446.35315	2038.84888				6.91030	1502.26355	1988.66663				152.31969	1322.09534	1962.48975	54.51258	924.79962	1765.37219	-97.25408	1229.46973	2008.10767							-241.97801	1039.91919	1719.30444	236.32159	829.22406	2115.75049	-321.26459	807.53320	1793.20544	-12.89765	954.12225	2094.65942	-187.26953	940.77777	1997.31201				138.74959	543.00116	2155.23975	-139.51271	483.15887	1907.25793	243.28279	244.99553	1974.28149	86.25983	8.75827	1797.80945	
418	4.170	-192.13869	1446.86450	2045.25562				2.59954	1502.40100	1996.93726				148.04742	1322.03259	1972.88245	54.24927	925.21600	1774.63867	-102.40659	1229.53882	2014.62451							-243.45770	1040.08130	1725.60730	229.49704	829.88611	2127.56982	-322.99860	808.08185	1798.27747	-20.44391	955.23297	2103.55615	-192.27017	940.90033	2000.01306				127.29563	545.04974	2168.85181	-140.94626	482.03580	1910.52112	233.81509	238.20239	2004.91052	123.51186	-43.84556	1741.99890	
419	4.180	-197.18942	1447.40088	2051.40039				-1.40504	1502.07532	2005.09558				143.80086	1322.33728	1983.87158	54.23435	925.05817	1786.41357	-107.59540	1230.25696	2021.94824										222.88144	830.25696	2139.37378	-324.01611	808.21259	1805.81836	-28.45511	955.37958	2110.97021	-197.53557	941.30243	2004.97742				115.42535	546.94409	2182.36865	-141.69412	481.46545	1912.66089	223.22105	231.49640	2036.03174				
420	4.190	-202.48154	1448.32910	2057.39111				-5.35149	1501.67603	2013.46887				139.49817	1321.93347	1994.12000	54.00114	924.71002	1798.53931	-113.11069	1230.23828	2028.29175										216.34186	830.09814	2150.97876	-324.70493	808.04041	1812.42505	-36.07878	955.62866	2118.70996	-203.26347	940.98517	2009.07178				101.88647	548.22906	2194.49316	-142.36385	480.51273	1915.77173	212.63834	224.48618	2066.23218				
421	4.200	-206.90598	1448.51160	2062.74561				-9.64176	1501.93176	2021.76465				134.91318	1321.98340	2004.66821	53.76468	925.11536	1809.42078	-118.59000	1229.73743	2034.24329										209.45074	830.70166	2162.97437	-326.28418	808.20728	1819.38342	-44.34087	955.50372	2127.37305	-207.95470	940.50293	2013.48462				90.06516	550.00531	2209.26758	-143.06076	479.84271	1919.25928	201.05035	217.59189	2095.92358				
422	4.210	-212.03835	1448.61414	2068.49365				-13.98854	1501.92114	2030.28857				130.29630	1321.48242	2015.88806	53.52562	924.66620	1816.94421	-123.83939	1230.12109	2041.28674										202.93951	830.48584	2175.10449	-327.52905	807.79510	1822.99695	-51.78436	954.96002	2134.18018	-213.36353	940.13959	2016.87561	-209.92619	1311.23999	1833.10364	78.42211	549.89917	2221.32031	-144.01787	479.67136	1921.62744	189.44855	212.68440	2126.98560	135.24602	163.75385	2147.40845	
423	4.220	-217.24347	1448.25476	2073.86450				-18.61030	1501.67395	2038.46631				125.37011	1320.85791	2026.66260	53.78503	924.45734	1828.49561	-128.94116	1229.54175	2047.50159										197.13351	828.25006	2183.89795	-328.17471	806.37805	1829.66272	-59.09195	953.86444	2141.98242	-218.19807	939.67566	2021.30493	-211.72261	1310.97546	1837.72253	64.48199	547.75122	2228.39453	-145.20099	478.89557	1925.17590	176.30258	206.31398	2156.92725	120.04925	158.23764	2175.73486	
424	4.230	-222.60674	1448.45313	2079.94214				-23.35690	1501.52429	2047.35657				120.40833	1320.68066	2037.53894				-134.50520	1228.57056	2053.83521										190.13435	827.83441	2196.33594	-329.02097	806.07062	1833.83130	-66.92974	952.83032	2149.69751	-223.91786	939.16370	2025.35132	-212.92513	1310.54175	1842.81189	51.55011	549.37469	2241.23975	-146.26357	478.47485	1927.75732	162.60124	201.92897	2187.43701				
425	4.240	-227.91295	1448.58862	2084.61597				-28.41672	1500.75061	2056.23730				115.33899	1320.21057	2049.74438	52.16352	924.28973	1847.39319	-139.79378	1228.08679	2060.20557										183.61301	828.19025	2208.23804	-330.60202	806.21283	1839.69629	-73.93085	952.07306	2157.27051	-228.59016	938.71393	2030.39136	-214.44850	1309.98840	1847.82239	39.48998	546.36292	2248.18604	-147.50102	478.48105	1930.37341	147.20979	197.79121	2218.04443	86.48045	155.44916	2239.91431	
426	4.250	-233.15259	1448.28833	2089.82324				-33.16662	1500.64917	2063.88721				110.10479	1319.23438	2060.88110	-145.28696	1227.48547	2067.56372										52.07608	921.53308	1860.47607	178.28093	826.00818	2219.26660	-331.44818	804.81750	1846.67944	-81.23115	950.76373	2164.73730	-233.84364	937.04065	2033.54822	-215.93732	1309.14587	1853.59583	27.66347	545.19513	2257.03418	-148.51997	477.87817	1933.90723	129.38629	193.94899	2247.62207	67.33966	156.05707	2271.75122	
427	4.260	-238.67966	1447.74695	2095.05566				-38.38242	1499.83032	2073.02856				103.69604	1316.21362	2068.97290	-150.99002	1226.40112	2072.97046										51.37044	923.31073	1866.57007	171.68089	826.45050	2232.61450	-332.51700	803.91736	1850.50610	-88.29706	950.29376	2172.07520	-238.60730	937.14142	2039.43433	-217.03719	1308.36816	1857.88843	15.72076	543.83112	2265.70142	-149.39284	477.74170	1936.57788	111.17966	190.96632	2276.48779	48.43765	121.60091	1984.38342	
